<svg width="29" height="26" viewBox="0 0 29 26" fill="none" xmlns="http://www.w3.org/2000/svg">
<path d="M19.5 24.625V3.95833C19.5 3.27319 19.2366 2.61611 18.7678 2.13164C18.2989 1.64717 17.663 1.375 17 1.375H12C11.337 1.375 10.7011 1.64717 10.2322 2.13164C9.76339 2.61611 9.5 3.27319 9.5 3.95833V24.625M4.5 6.54167H24.5C25.8807 6.54167 27 7.69826 27 9.125V22.0417C27 23.4684 25.8807 24.625 24.5 24.625H4.5C3.11929 24.625 2 23.4684 2 22.0417V9.125C2 7.69826 3.11929 6.54167 4.5 6.54167Z" stroke="white" stroke-width="2.5" stroke-linecap="round" stroke-linejoin="round"/>
</svg>
