<svg width="43" height="43" viewBox="0 0 43 43" fill="none" xmlns="http://www.w3.org/2000/svg">
<path d="M43 21.5C43 33.3741 33.3741 43 21.5 43C9.62588 43 0 33.3741 0 21.5C0 9.62588 9.62588 0 21.5 0C33.3741 0 43 9.62588 43 21.5ZM6.34286 21.5C6.34286 29.8711 13.1289 36.6571 21.5 36.6571C29.8711 36.6571 36.6571 29.8711 36.6571 21.5C36.6571 13.1289 29.8711 6.34286 21.5 6.34286C13.1289 6.34286 6.34286 13.1289 6.34286 21.5Z" fill="white" fill-opacity="0.4"/>
<path d="M39.8288 21.5C41.5802 21.5 43.0239 20.0726 42.7665 18.3402C42.5085 16.6038 42.0383 14.9015 41.3634 13.2723C40.2829 10.6638 38.6993 8.29366 36.7028 6.2972C34.7063 4.30074 32.3362 2.71707 29.7277 1.63659C28.0985 0.961748 26.3962 0.491458 24.6598 0.233458C22.9274 -0.0239455 21.5 1.41982 21.5 3.17125C21.5 4.92268 22.9349 6.30927 24.6482 6.67304C25.5535 6.86526 26.4414 7.14044 27.3005 7.4963C29.1395 8.25803 30.8105 9.37453 32.218 10.782C33.6255 12.1895 34.742 13.8605 35.5037 15.6995C35.8596 16.5586 36.1347 17.4465 36.327 18.3518C36.6907 20.0651 38.0773 21.5 39.8288 21.5Z" fill="white"/>
</svg>
