<svg width="19" height="27" viewBox="0 0 19 27" fill="none" xmlns="http://www.w3.org/2000/svg">
<path d="M17.375 11.25V13.5C17.375 15.5886 16.5453 17.5916 15.0685 19.0685C13.5916 20.5453 11.5886 21.375 9.5 21.375M9.5 21.375C7.41142 21.375 5.40838 20.5453 3.93153 19.0685C2.45468 17.5916 1.625 15.5886 1.625 13.5V11.25M9.5 21.375V25.875M5 25.875H14M9.5 1.125C8.60489 1.125 7.74645 1.48058 7.11351 2.11351C6.48058 2.74645 6.125 3.60489 6.125 4.5V13.5C6.125 14.3951 6.48058 15.2536 7.11351 15.8865C7.74645 16.5194 8.60489 16.875 9.5 16.875C10.3951 16.875 11.2535 16.5194 11.8865 15.8865C12.5194 15.2536 12.875 14.3951 12.875 13.5V4.5C12.875 3.60489 12.5194 2.74645 11.8865 2.11351C11.2535 1.48058 10.3951 1.125 9.5 1.125Z" stroke="white" stroke-width="2" stroke-linecap="round" stroke-linejoin="round"/>
</svg>
